<svg width="17" height="17" viewBox="0 0 17 17" fill="none" xmlns="http://www.w3.org/2000/svg">
<path d="M15.5515 17L9.70111 11.149C7.09855 12.9991 3.51234 12.5466 1.45108 10.1079C-0.610182 7.66915 -0.458829 4.05788 1.79926 1.80018C4.05676 -0.458506 7.6686 -0.610504 10.1079 1.45052C12.5472 3.51155 13.0001 7.0979 11.1496 9.70052L17 15.5516L15.5525 16.999L15.5515 17ZM6.14175 2.04788C4.20053 2.04745 2.52576 3.41001 2.13142 5.31064C1.73708 7.21126 2.73155 9.12757 4.51273 9.89935C6.29391 10.6711 8.37226 10.0863 9.48945 8.49884C10.6066 6.91142 10.4556 4.75776 9.12784 3.34176L9.74717 3.95594L9.04902 3.25987L9.03673 3.24759C8.2708 2.47698 7.22828 2.04495 6.14175 2.04788Z" fill="white"/>
</svg>
