<svg width="14" height="18" viewBox="0 0 14 18" fill="none" xmlns="http://www.w3.org/2000/svg">
<path d="M6.99856 18C5.73575 16.9229 4.56525 15.742 3.49928 14.4697C1.89961 12.5591 8.8348e-07 9.71371 8.8348e-07 7.00227C-0.00141699 4.1704 1.7039 1.61677 4.32018 0.533C6.93646 -0.55077 9.94801 0.0489428 11.9495 2.05229C13.2657 3.36263 14.003 5.14504 13.9972 7.00227C13.9972 9.71371 12.0975 12.5591 10.4978 14.4697C9.43187 15.742 8.26137 16.9229 6.99856 18ZM6.99856 2.0033C4.23907 2.0066 2.00289 4.24278 1.99959 7.00227C1.99959 8.16803 2.52648 10.1866 5.03396 13.187C5.65197 13.9249 6.30771 14.6304 6.99856 15.3006C7.68946 14.6312 8.34552 13.9267 8.96415 13.19C11.4706 10.1856 11.9975 8.16703 11.9975 7.00227C11.9942 4.24278 9.75804 2.0066 6.99856 2.0033ZM6.99856 10.0016C5.34205 10.0016 3.99918 8.65878 3.99918 7.00227C3.99918 5.34576 5.34205 4.00289 6.99856 4.00289C8.65507 4.00289 9.99794 5.34576 9.99794 7.00227C9.99794 7.79775 9.68194 8.56066 9.11944 9.12315C8.55695 9.68564 7.79404 10.0016 6.99856 10.0016Z" fill="#002A34"/>
</svg>
