<svg width="18" height="18" viewBox="0 0 18 18" fill="none" xmlns="http://www.w3.org/2000/svg">
<path fill-rule="evenodd" clip-rule="evenodd" d="M9.00075 0C6.5565 0 6.24975 0.0106875 5.28975 0.054375C4.33163 0.09825 3.67763 0.249938 3.10538 0.4725C2.51344 0.702375 2.01131 1.00988 1.51106 1.51031C1.01044 2.01056 0.702938 2.51269 0.472313 3.10444C0.249188 3.67688 0.0973125 4.33106 0.0541875 5.28881C0.01125 6.24881 0 6.55575 0 9C0 11.4443 0.010875 11.7501 0.054375 12.7101C0.0984375 13.6682 0.250125 14.3222 0.4725 14.8944C0.702563 15.4864 1.01006 15.9885 1.5105 16.4888C2.01056 16.9894 2.51269 17.2976 3.10425 17.5275C3.67688 17.7501 4.33106 17.9018 5.289 17.9456C6.249 17.9893 6.55556 18 8.99963 18C11.4441 18 11.7499 17.9893 12.7099 17.9456C13.668 17.9018 14.3228 17.7501 14.8954 17.5275C15.4871 17.2976 15.9885 16.9894 16.4886 16.4888C16.9892 15.9885 17.2967 15.4864 17.5273 14.8946C17.7486 14.3222 17.9004 13.668 17.9454 12.7103C17.9886 11.7503 17.9998 11.4443 17.9998 9C17.9998 6.55575 17.9886 6.249 17.9454 5.289C17.9004 4.33087 17.7486 3.67688 17.5273 3.10463C17.2967 2.51269 16.9892 2.01056 16.4886 1.51031C15.9879 1.00969 15.4873 0.702188 14.8948 0.4725C14.3211 0.249938 13.6667 0.09825 12.7086 0.054375C11.7486 0.0106875 11.4429 0 8.99794 0H9.00075ZM8.19334 1.62185C8.43296 1.62147 8.70034 1.62185 9.00071 1.62185C11.4037 1.62185 11.6885 1.63047 12.6375 1.6736C13.515 1.71372 13.9912 1.86035 14.3085 1.98354C14.7285 2.14666 15.0279 2.34166 15.3427 2.65666C15.6577 2.97166 15.8527 3.27166 16.0162 3.69166C16.1394 4.00854 16.2862 4.48479 16.3261 5.36229C16.3693 6.31104 16.3787 6.59604 16.3787 8.99791C16.3787 11.3998 16.3693 11.6848 16.3261 12.6335C16.286 13.511 16.1394 13.9873 16.0162 14.3042C15.8531 14.7242 15.6577 15.0232 15.3427 15.338C15.0277 15.653 14.7287 15.848 14.3085 16.0112C13.9916 16.1349 13.515 16.2812 12.6375 16.3213C11.6887 16.3644 11.4037 16.3738 9.00071 16.3738C6.59752 16.3738 6.31271 16.3644 5.36396 16.3213C4.48646 16.2808 4.01021 16.1342 3.69277 16.011C3.27277 15.8479 2.97277 15.6529 2.65777 15.3379C2.34277 15.0229 2.14777 14.7236 1.98427 14.3034C1.86109 13.9865 1.71427 13.5103 1.67434 12.6328C1.63121 11.684 1.62259 11.399 1.62259 8.99566C1.62259 6.59229 1.63121 6.30879 1.67434 5.36004C1.71446 4.48254 1.86109 4.00629 1.98427 3.68904C2.1474 3.26904 2.34277 2.96904 2.65777 2.65404C2.97277 2.33904 3.27277 2.14404 3.69277 1.98054C4.01002 1.85679 4.48646 1.71054 5.36396 1.67022C6.19421 1.63272 6.51596 1.62147 8.19334 1.6196V1.62185ZM13.8048 3.11623C13.2086 3.11623 12.7248 3.59942 12.7248 4.19585C12.7248 4.7921 13.2086 5.27585 13.8048 5.27585C14.4011 5.27585 14.8848 4.7921 14.8848 4.19585C14.8848 3.5996 14.4011 3.11623 13.8048 3.11623ZM9.00077 4.3781C6.44833 4.3781 4.37889 6.44754 4.37889 8.99998C4.37889 11.5524 6.44833 13.6209 9.00077 13.6209C11.5532 13.6209 13.6219 11.5524 13.6219 8.99998C13.6219 6.44754 11.5532 4.3781 9.00077 4.3781ZM9.00073 5.99998C10.6575 5.99998 12.0007 7.34304 12.0007 8.99998C12.0007 10.6567 10.6575 12 9.00073 12C7.34379 12 6.00073 10.6567 6.00073 8.99998C6.00073 7.34304 7.34379 5.99998 9.00073 5.99998Z" fill="white"/>
</svg>
