<svg width="20" height="20" viewBox="0 0 20 20" fill="none" xmlns="http://www.w3.org/2000/svg">
<path d="M18.8889 13.8889C17.5 13.8889 16.1667 13.6667 14.9222 13.2556C14.8111 13.2222 14.6889 13.2 14.5778 13.2C14.2889 13.2 14.0111 13.3111 13.7889 13.5222L11.3444 15.9667C8.2 14.3667 5.62222 11.8 4.02222 8.65556L6.46667 6.2C6.77778 5.9 6.86667 5.46667 6.74444 5.07778C6.33333 3.83333 6.11111 2.5 6.11111 1.11111C6.11111 0.5 5.61111 0 5 0H1.11111C0.5 0 0 0.5 0 1.11111C0 11.5444 8.45556 20 18.8889 20C19.5 20 20 19.5 20 18.8889V15C20 14.3889 19.5 13.8889 18.8889 13.8889ZM2.25556 2.22222H3.92222C4 3.2 4.16667 4.16667 4.43333 5.1L3.1 6.44445C2.64444 5.1 2.35556 3.68889 2.25556 2.22222ZM17.7778 17.7444C16.3111 17.6444 14.8889 17.3556 13.5556 16.9L14.8889 15.5667C15.8333 15.8333 16.8 16 17.7778 16.0667V17.7444Z" fill="#002A34"/>
</svg>
