<svg width="26" height="32" viewBox="0 0 26 32" fill="none" xmlns="http://www.w3.org/2000/svg">
<path d="M13 16C11.2125 16 9.75 14.56 9.75 12.8C9.75 11.04 11.2125 9.6 13 9.6C14.7875 9.6 16.25 11.04 16.25 12.8C16.25 14.56 14.7875 16 13 16ZM22.75 13.12C22.75 7.312 18.4438 3.2 13 3.2C7.55625 3.2 3.25 7.312 3.25 13.12C3.25 16.864 6.41875 21.824 13 27.744C19.5813 21.824 22.75 16.864 22.75 13.12ZM13 0C19.825 0 26 5.152 26 13.12C26 18.432 21.6612 24.72 13 32C4.33875 24.72 0 18.432 0 13.12C0 5.152 6.175 0 13 0Z" fill="#93191B"/>
</svg>
