<svg width="13" height="18" viewBox="0 0 13 18" fill="none" xmlns="http://www.w3.org/2000/svg">
<path d="M6.5 9C5.60625 9 4.875 8.26875 4.875 7.375C4.875 6.48125 5.60625 5.75 6.5 5.75C7.39375 5.75 8.125 6.48125 8.125 7.375C8.125 8.26875 7.39375 9 6.5 9ZM11.375 7.5375C11.375 4.58812 9.22188 2.5 6.5 2.5C3.77813 2.5 1.625 4.58812 1.625 7.5375C1.625 9.43875 3.20937 11.9575 6.5 14.9637C9.79063 11.9575 11.375 9.43875 11.375 7.5375ZM6.5 0.875C9.9125 0.875 13 3.49125 13 7.5375C13 10.235 10.8306 13.4281 6.5 17.125C2.16937 13.4281 0 10.235 0 7.5375C0 3.49125 3.0875 0.875 6.5 0.875Z" fill="white"/>
</svg>
