<svg width="22" height="22" viewBox="0 0 22 22" fill="none" xmlns="http://www.w3.org/2000/svg">
<path fill-rule="evenodd" clip-rule="evenodd" d="M10.9932 21.811H10.9887C9.16415 21.8103 7.37138 21.3526 5.77909 20.484L0 22L1.54658 16.3509C0.592574 14.6976 0.0905811 12.8222 0.0913992 10.9009C0.0937907 4.89018 4.98424 0 10.9931 0C13.9094 0.00125864 16.6465 1.13656 18.7047 3.19719C20.763 5.25771 21.8958 7.99664 21.8947 10.9095C21.8923 16.9188 17.0038 21.8085 10.9932 21.811ZM6.04623 18.511L6.3771 18.7073C7.76828 19.5329 9.36298 19.9697 10.9889 19.9703H10.9926C15.9867 19.9703 20.0514 15.9055 20.0534 10.9093C20.0543 8.48822 19.1128 6.21174 17.4021 4.49902C15.6913 2.78631 13.4163 1.84264 10.9961 1.8418C5.99815 1.8418 1.93338 5.9062 1.9314 10.902C1.93069 12.6141 2.40974 14.2815 3.31676 15.7241L3.53219 16.0669L2.61684 19.4106L6.04623 18.511ZM16.1117 13.2573C16.3017 13.3491 16.43 13.4111 16.4848 13.5025C16.5528 13.6161 16.5528 14.1615 16.326 14.7979C16.0989 15.4341 15.0107 16.0149 14.4873 16.093C14.018 16.1632 13.4241 16.1925 12.7716 15.9851C12.376 15.8596 11.8687 15.692 11.2188 15.4113C8.66513 14.3087 6.9394 11.8336 6.61324 11.3659C6.59039 11.3331 6.57441 11.3102 6.5655 11.2983L6.5633 11.2953C6.41915 11.103 5.45325 9.81427 5.45325 8.48047C5.45325 7.22575 6.06958 6.56809 6.35328 6.26537C6.37272 6.24463 6.39059 6.22556 6.4066 6.20807C6.65628 5.93536 6.9514 5.86719 7.13298 5.86719C7.31455 5.86719 7.49635 5.86887 7.65505 5.87684C7.67463 5.87782 7.695 5.8777 7.71606 5.87758C7.8748 5.87665 8.0727 5.87549 8.26792 6.34443C8.34303 6.5249 8.45293 6.79246 8.56885 7.07466C8.80323 7.64529 9.0622 8.27574 9.10776 8.36698C9.17587 8.50333 9.22126 8.66234 9.13047 8.84422C9.11684 8.87148 9.10423 8.89722 9.09219 8.92181C9.02399 9.06103 8.97383 9.16345 8.85808 9.29859C8.81257 9.35173 8.76553 9.40902 8.7185 9.4663C8.62478 9.58043 8.53108 9.69454 8.44948 9.77583C8.31312 9.91166 8.17116 10.059 8.33006 10.3317C8.48895 10.6044 9.03563 11.4964 9.8454 12.2187C10.7159 12.9951 11.4724 13.3233 11.8559 13.4896C11.9308 13.5221 11.9914 13.5484 12.036 13.5707C12.3082 13.7071 12.4671 13.6843 12.6261 13.5025C12.785 13.3208 13.307 12.7071 13.4885 12.4345C13.6701 12.1619 13.8518 12.2073 14.1014 12.2981C14.3511 12.3891 15.6903 13.048 15.9627 13.1844C16.0159 13.211 16.0656 13.235 16.1117 13.2573Z" fill="#002A34"/>
</svg>
