<svg width="19" height="20" viewBox="0 0 19 20" fill="none" xmlns="http://www.w3.org/2000/svg">
<path fill-rule="evenodd" clip-rule="evenodd" d="M9.37014 19.2148H9.36629C7.81115 19.2143 6.28306 18.8241 4.92586 18.0838L0 19.3759L1.31824 14.5609C0.505086 13.1517 0.0772076 11.5532 0.0779049 9.91549C0.0799433 4.79222 4.24836 0.624023 9.37005 0.624023C11.8558 0.625096 14.1888 1.59278 15.9432 3.34918C17.6975 5.10548 18.6631 7.44004 18.6621 9.92282C18.6601 15.0449 14.4933 19.2127 9.37014 19.2148ZM5.15417 16.4024L5.43618 16.5698C6.62197 17.2735 7.98123 17.6458 9.36709 17.6464H9.37022C13.627 17.6464 17.0916 14.1817 17.0933 9.92314C17.0941 7.85948 16.2915 5.91909 14.8334 4.45925C13.3753 2.9994 11.4361 2.19505 9.37326 2.19434C5.11318 2.19434 1.64854 5.65867 1.64685 9.91689C1.64625 11.3762 2.05457 12.7974 2.82767 14.027L3.01131 14.3193L2.23109 17.1692L5.15417 16.4024ZM13.7335 11.924C13.8954 12.0023 14.0048 12.0551 14.0515 12.1331C14.1095 12.2299 14.1095 12.6948 13.9161 13.2372C13.7225 13.7795 12.795 14.2745 12.3489 14.3411C11.9489 14.4009 11.4427 14.4259 10.8865 14.2491C10.5493 14.1421 10.1169 13.9993 9.56293 13.76C7.38632 12.8202 5.91538 10.7106 5.63737 10.3119C5.6179 10.2839 5.60427 10.2644 5.59668 10.2543L5.5948 10.2518C5.47193 10.0878 4.64864 8.98934 4.64864 7.85247C4.64864 6.78301 5.17398 6.22245 5.41579 5.96442C5.43236 5.94674 5.44759 5.93048 5.46124 5.91558C5.67405 5.68313 5.9256 5.62502 6.08038 5.62502C6.23514 5.62502 6.39009 5.62645 6.52537 5.63324C6.54206 5.63408 6.55942 5.63398 6.57737 5.63388C6.71267 5.63308 6.88135 5.63209 7.04775 6.0318C7.11177 6.18563 7.20545 6.41369 7.30424 6.65422C7.50403 7.14059 7.72476 7.67797 7.76359 7.75574C7.82165 7.87196 7.86034 8.00749 7.78295 8.16252C7.77133 8.18576 7.76059 8.2077 7.75032 8.22866C7.69219 8.34733 7.64944 8.43462 7.55078 8.54981C7.51199 8.5951 7.47189 8.64393 7.4318 8.69275C7.35192 8.79003 7.27206 8.8873 7.20251 8.95659C7.08627 9.07236 6.96528 9.19797 7.10071 9.43042C7.23615 9.66286 7.70211 10.4231 8.39233 11.0388C9.13428 11.7006 9.77914 11.9803 10.106 12.1221C10.1698 12.1498 10.2215 12.1722 10.2595 12.1912C10.4916 12.3074 10.627 12.288 10.7624 12.1331C10.8979 11.9781 11.3428 11.4551 11.4976 11.2227C11.6524 10.9903 11.8072 11.0291 12.02 11.1065C12.2328 11.1841 13.3743 11.7457 13.6065 11.8619C13.6518 11.8846 13.6942 11.905 13.7335 11.924Z" fill="#FDFDFD"/>
</svg>
