<svg width="22" height="15" viewBox="0 0 22 15" fill="none" xmlns="http://www.w3.org/2000/svg">
<path fill-rule="evenodd" clip-rule="evenodd" d="M19.0013 0.447823C19.9193 0.694234 20.6422 1.42028 20.8875 2.3423C21.3333 4.01335 21.3333 7.5 21.3333 7.5C21.3333 7.5 21.3333 10.9865 20.8875 12.6577C20.6422 13.5797 19.9193 14.3058 19.0013 14.5523C17.3378 15 10.6667 15 10.6667 15C10.6667 15 3.99552 15 2.33188 14.5523C1.41394 14.3058 0.69103 13.5797 0.445697 12.6577C0 10.9865 0 7.5 0 7.5C0 7.5 0 4.01335 0.445697 2.3423C0.69103 1.42028 1.41394 0.694234 2.33188 0.447823C3.99552 0 10.6667 0 10.6667 0C10.6667 0 17.3378 0 19.0013 0.447823ZM8.66669 4.56515V11.0869L14 7.82614L8.66669 4.56515Z" fill="white"/>
</svg>
